<?xml version="1.0" encoding="UTF-8"?>
<svg id="Layer_1" data-name="Layer 1" xmlns="http://www.w3.org/2000/svg" viewBox="0 0 590.45 706.45">
  <defs>
    <style>
      .cls-1 {
        fill: #05ff00;
        stroke: #05ff00;
        stroke-miterlimit: 10;
        stroke-width: 15px;
      }
    </style>
  </defs>
  <path class="cls-1" d="M180.29,231.94c-.11-72.7,1.19-121.96,2.02-139.04,1.71-35.07,15.7-44.67,25.95-66.09,1.6-3.33-.72-7.25-4.3-7.25l-127.38-.2c-3.11,0-5.22,3.34-3.93,6.29,5.88,13.46,18.22,29.35,23.4,50.02,8.39,33.48,4.95,131.8,2.42,161.25-.96,11.15-40.64,2.29-46.52,2.01-.61-.03-1.22.13-1.73.47-5.12,3.49-27.66,24.04-34.74,29.67-3.34,2.65-3.15,1.47-.12,4.52,5.94,5.99,29.25,28.44,34.56,29,19.53,2.03,49.68-3.2,49.68,3.33v273.72c0,4.05,4.51,6.49,7.89,4.26,19.62-12.94,53.11-37.04,67.34-47.34,4.2-3.04,6.66-7.93,6.59-13.12-.47-32.6-2.14-153.62-2.15-214.26,0-2.13,1.33-3.1,1.33-3.1,1.23-.98,1.93-1.07,2.76-1.2,12.56-2.06,227.4-3.97,227.4-3.97,2.43.28,1.95,169.29,1.96,223.54,0,3.99,2.06,7.69,5.45,9.78,26.27,16.19,59.84,39.55,74.25,49.7,2.97,2.09,7.05-.06,7.02-3.69l-2.35-277.37c0-1,.38-1.96,1.06-2.67h0c.68-.71,1.6-1.1,2.57-1.1l33.13,2.45c6.85.03,16.94-3.88,22.02-8.47,10.72-9.69,19.1-25.31,19.1-25.31,3.69-4.21,3.27-2-.34-5.47-9.96-9.58-18.46-20.18-30.3-25.22-11.4-4.85-47.58,7.36-48.49-3.93-.21-2.6,1.88-70.24,1.7-104.59-.08-15.2-1.2-33.98.55-46.28,4.16-29.21,23.68-54.17,28.61-63.12,1.03-1.86-.27-4.19-2.33-4.19h-133.12c-2.7,0-4.46,2.96-3.25,5.47,2.06,4.24,21.47,36.04,26.48,62.42,1.69,8.91,2.34,28.19,2.85,48.85,1.05,42.55-3.12,75.98-2.26,102.38.66,5.74-148.75,1.71-229.27,1.64-1.76,0-3.49-.66-4.68-1.97-.48-.53-.84-1.14-.84-1.79Z"/>
  <path class="cls-1" d="M150.94,563.65v77.88c0,4.26,2.91,7.94,7.04,8.98,60.17,15.2,124.47,55.39,186.71,36.06,50.88-15.8,78.7-51.99,90.53-103.04,23.42-101.12-50.41-133.1-122.25-177.83-44.77-27.88-115.31-47.65-92.94-122.28,13.87-46.3,59.5-59.85,109.57-43.52,37.59,12.26,59.61,29.35,81.84,48.6,2.95,2.55,7.53.51,7.59-3.38l1.08-65.21c.03-1.88-.72-3.7-2.07-5.01h0c-18.39-8.1-84.48-33.42-126.32-36.35-62.73-4.4-123.91,48.74-134.59,110.04-15.06,86.42,36.5,122.87,100.87,163.99,25.09,16.03,93.02,50.39,104.58,71.83,14.73,27.32,9.77,57.89-3.32,77.58-31.74,47.76-99.65,34.18-143.96,6.26-19.68-12.4-38.43-28.84-55.98-47.87-2.98-3.23-8.37-1.13-8.37,3.26Z"/>
</svg>
